<?xml version="1.0" encoding="UTF-8"?>
<svg id="a" data-name="Layer 1" xmlns="http://www.w3.org/2000/svg" width="1000" height="1000" viewBox="0 0 1000 1000">
  <circle cx="500" cy="500" r="500" fill="#FF6400"/>
  <path d="M499.98,202.36c15.26,0,29.33,8.06,37.06,21.27l232.05,395.34c7.84,13.32,7.84,29.76,.21,43.08-7.63,13.32-21.92,21.59-37.28,21.59H267.93c-15.36,0-29.65-8.27-37.28-21.59-7.63-13.32-7.52-29.87,.21-43.08L462.92,223.63c7.73-13.21,21.81-21.27,37.06-21.27Zm0,137.51c-14.29,0-25.78,11.49-25.78,25.78v120.32c0,14.29,11.49,25.78,25.78,25.78s25.78-11.49,25.78-25.78v-120.32c0-14.29-11.49-25.78-25.78-25.78Zm34.38,240.64c0-19.02-15.36-34.38-34.38-34.38s-34.38,15.36-34.38,34.38,15.36,34.38,34.38,34.38,34.38-15.36,34.38-34.38Z" fill="#fff"/>
</svg>